<svg width="60" height="60" viewBox="0 0 60 60" fill="none" xmlns="http://www.w3.org/2000/svg">
<path opacity="0.4" d="M13.3345 52.6764C-4.44483 42.598 -4.44481 17.402 13.3345 7.32364L19.9966 3.54711C37.7759 -6.53127 60 6.06671 60 26.2235V33.7765C60 53.9333 37.7759 66.5313 19.9966 56.4529L13.3345 52.6764Z" fill="#B499FF"/>
<g filter="url(#filter0_d_4_29)">
<path d="M17.6002 36.5527L25.5 31.0514C25.6757 30.8743 25.7744 30.6342 25.7744 30.3839C25.7744 30.1336 25.6757 29.8935 25.5 29.7164L17.6002 23.8862C17.0119 23.2949 16 23.7151 16 24.5543V35.8858C16 36.7303 17.0154 37.1428 17.6002 36.5527ZM43 39.6629H16.9375C16.6889 39.6629 16.4504 39.7624 16.2746 39.9395C16.0988 40.1166 16 40.3568 16 40.6072V42.4958C16 42.7462 16.0988 42.9864 16.2746 43.1635C16.4504 43.3406 16.6889 43.4401 16.9375 43.4401H43C43.2486 43.4401 43.4871 43.3406 43.6629 43.1635C43.8387 42.9864 43.9375 42.7462 43.9375 42.4958V40.6072C43.9375 40.3568 43.8387 40.1166 43.6629 39.9395C43.4871 39.7624 43.2486 39.6629 43 39.6629ZM43.1857 32.1086H29.6947C29.5959 32.1085 29.4982 32.1281 29.4069 32.1661C29.3157 32.2041 29.2328 32.2599 29.1629 32.3302C29.0931 32.4005 29.0378 32.484 29 32.5759C28.9622 32.6679 28.9429 32.7663 28.9429 32.8658V35.1286C28.9429 35.228 28.9622 35.3265 29 35.4184C29.0378 35.5103 29.0931 35.5938 29.1629 35.6642C29.2328 35.7345 29.3157 35.7903 29.4069 35.8283C29.4982 35.8663 29.5959 35.8858 29.6947 35.8858H43.1857C43.2845 35.8858 43.3823 35.8663 43.4735 35.8283C43.5648 35.7903 43.6477 35.7345 43.7175 35.6642C43.7873 35.5938 43.8427 35.5103 43.8804 35.4184C43.9182 35.3265 43.9376 35.228 43.9375 35.1286V32.8658C43.9376 32.7663 43.9182 32.6679 43.8804 32.5759C43.8427 32.484 43.7873 32.4005 43.7175 32.3302C43.6477 32.2599 43.5648 32.2041 43.4735 32.1661C43.3823 32.1281 43.2845 32.1085 43.1857 32.1086ZM43.1857 24.5543H29.6947C29.5959 24.5542 29.4982 24.5738 29.4069 24.6118C29.3157 24.6498 29.2328 24.7056 29.1629 24.7759C29.0931 24.8462 29.0378 24.9297 29 25.0216C28.9622 25.1135 28.9429 25.212 28.9429 25.3115V27.5743C28.9429 27.6737 28.9622 27.7722 29 27.8641C29.0378 27.956 29.0931 28.0395 29.1629 28.1098C29.2328 28.1802 29.3157 28.2359 29.4069 28.274C29.4982 28.312 29.5959 28.3315 29.6947 28.3315H43.1857C43.2845 28.3315 43.3823 28.312 43.4735 28.274C43.5648 28.2359 43.6477 28.1802 43.7175 28.1098C43.7873 28.0395 43.8427 27.956 43.8804 27.8641C43.9182 27.7722 43.9376 27.6737 43.9375 27.5743V25.3115C43.9376 25.212 43.9182 25.1135 43.8804 25.0216C43.8427 24.9297 43.7873 24.8462 43.7175 24.7759C43.6477 24.7056 43.5648 24.6498 43.4735 24.6118C43.3823 24.5738 43.2845 24.5542 43.1857 24.5543ZM43 17H16.9375C16.6889 17 16.4504 17.0995 16.2746 17.2766C16.0988 17.4537 16 17.6938 16 17.9443V19.8329C16 20.0833 16.0988 20.3235 16.2746 20.5006C16.4504 20.6777 16.6889 20.7772 16.9375 20.7772H43C43.2486 20.7772 43.4871 20.6777 43.6629 20.5006C43.8387 20.3235 43.9375 20.0833 43.9375 19.8329V17.9443C43.9375 17.6938 43.8387 17.4537 43.6629 17.2766C43.4871 17.0995 43.2486 17 43 17Z" fill="#4201FF"/>
</g>
<defs>
<filter id="filter0_d_4_29" x="6" y="11" width="47.9375" height="46.4399" filterUnits="userSpaceOnUse" color-interpolation-filters="sRGB">
<feFlood flood-opacity="0" result="BackgroundImageFix"/>
<feColorMatrix in="SourceAlpha" type="matrix" values="0 0 0 0 0 0 0 0 0 0 0 0 0 0 0 0 0 0 127 0" result="hardAlpha"/>
<feOffset dy="4"/>
<feGaussianBlur stdDeviation="5"/>
<feComposite in2="hardAlpha" operator="out"/>
<feColorMatrix type="matrix" values="0 0 0 0 0.258824 0 0 0 0 0.00392157 0 0 0 0 1 0 0 0 0.4 0"/>
<feBlend mode="normal" in2="BackgroundImageFix" result="effect1_dropShadow_4_29"/>
<feBlend mode="normal" in="SourceGraphic" in2="effect1_dropShadow_4_29" result="shape"/>
</filter>
</defs>
</svg>
