<svg width="60" height="60" viewBox="0 0 60 60" fill="none" xmlns="http://www.w3.org/2000/svg">
<path opacity="0.4" d="M13.3345 52.6764C-4.44483 42.598 -4.44481 17.402 13.3345 7.32364L19.9966 3.54711C37.7759 -6.53127 60 6.06671 60 26.2235V33.7765C60 53.9333 37.7759 66.5313 19.9966 56.4529L13.3345 52.6764Z" fill="#99D0FF"/>
<g filter="url(#filter0_d_4_8)">
<path d="M12.875 28.22H14.75V39.5514H12.875C12.6287 39.5517 12.3847 39.5031 12.1571 39.4083C11.9295 39.3135 11.7227 39.1744 11.5485 38.999C11.3743 38.8235 11.2362 38.6152 11.1421 38.386C11.048 38.1567 10.9997 37.911 11 37.6629V30.1086C10.9997 29.8605 11.048 29.6148 11.1421 29.3855C11.2362 29.1562 11.3743 28.9479 11.5485 28.7725C11.7227 28.5971 11.9295 28.458 12.1571 28.3632C12.3847 28.2684 12.6287 28.2197 12.875 28.22ZM42.875 25.3871V41.44C42.874 42.4415 42.4786 43.4016 41.7756 44.1098C41.0725 44.8179 40.1193 45.2162 39.125 45.2172H20.375C19.3807 45.2162 18.4275 44.8179 17.7244 44.1098C17.0214 43.4016 16.626 42.4415 16.625 41.44V25.3871C16.6248 24.7671 16.7459 24.153 16.9814 23.5801C17.2169 23.0072 17.5622 22.4866 17.9975 22.0481C18.4328 21.6097 18.9496 21.2619 19.5184 21.0247C20.0872 20.7875 20.6969 20.6655 21.3125 20.6657H27.875V16.8886C27.875 16.3877 28.0725 15.9073 28.4242 15.5532C28.7758 15.199 29.2527 15 29.75 15C30.2473 15 30.7242 15.199 31.0758 15.5532C31.4275 15.9073 31.625 16.3877 31.625 16.8886V20.6657H38.1875C38.8031 20.6655 39.4128 20.7875 39.9816 21.0247C40.5504 21.2619 41.0672 21.6097 41.5025 22.0481C41.9378 22.4866 42.2831 23.0072 42.5186 23.5801C42.7541 24.153 42.8752 24.7671 42.875 25.3871ZM26.4688 30.1086C26.4688 29.6417 26.3313 29.1853 26.0738 28.797C25.8162 28.4088 25.4502 28.1062 25.0219 27.9276C24.5937 27.7489 24.1224 27.7021 23.6678 27.7932C23.2131 27.8843 22.7955 28.1092 22.4677 28.4393C22.1399 28.7695 21.9167 29.1901 21.8263 29.648C21.7359 30.106 21.7823 30.5806 21.9597 31.012C22.1371 31.4434 22.4375 31.812 22.8229 32.0714C23.2083 32.3308 23.6615 32.4693 24.125 32.4693C24.4328 32.4693 24.7376 32.4083 25.0219 32.2896C25.3063 32.171 25.5647 31.9971 25.7823 31.7779C26 31.5587 26.1726 31.2984 26.2904 31.012C26.4082 30.7256 26.4688 30.4186 26.4688 30.1086ZM26 37.6629H22.25V39.5514H26V37.6629ZM31.625 37.6629H27.875V39.5514H31.625V37.6629ZM37.7188 30.1086C37.7188 29.6417 37.5813 29.1853 37.3238 28.797C37.0662 28.4088 36.7002 28.1062 36.2719 27.9276C35.8437 27.7489 35.3724 27.7021 34.9178 27.7932C34.4631 27.8843 34.0455 28.1092 33.7177 28.4393C33.3899 28.7695 33.1667 29.1901 33.0763 29.648C32.9858 30.106 33.0323 30.5806 33.2097 31.012C33.3871 31.4434 33.6875 31.812 34.0729 32.0714C34.4583 32.3308 34.9114 32.4693 35.375 32.4693C35.6828 32.4693 35.9876 32.4083 36.2719 32.2896C36.5563 32.171 36.8147 31.9971 37.0323 31.7779C37.25 31.5587 37.4226 31.2984 37.5404 31.012C37.6582 30.7256 37.7188 30.4186 37.7188 30.1086ZM37.25 37.6629H33.5V39.5514H37.25V37.6629ZM48.5 30.1086V37.6629C48.5003 37.911 48.452 38.1567 48.3579 38.386C48.2637 38.6152 48.1256 38.8235 47.9515 38.999C47.7773 39.1744 47.5705 39.3135 47.3429 39.4083C47.1153 39.5031 46.8713 39.5517 46.625 39.5514H44.75V28.22H46.625C46.8713 28.2197 47.1153 28.2684 47.3429 28.3632C47.5705 28.458 47.7773 28.5971 47.9515 28.7725C48.1256 28.9479 48.2637 29.1562 48.3579 29.3855C48.452 29.6148 48.5003 29.8605 48.5 30.1086Z" fill="#0089FF"/>
</g>
<defs>
<filter id="filter0_d_4_8" x="1" y="9" width="57.5" height="50.2173" filterUnits="userSpaceOnUse" color-interpolation-filters="sRGB">
<feFlood flood-opacity="0" result="BackgroundImageFix"/>
<feColorMatrix in="SourceAlpha" type="matrix" values="0 0 0 0 0 0 0 0 0 0 0 0 0 0 0 0 0 0 127 0" result="hardAlpha"/>
<feOffset dy="4"/>
<feGaussianBlur stdDeviation="5"/>
<feComposite in2="hardAlpha" operator="out"/>
<feColorMatrix type="matrix" values="0 0 0 0 0 0 0 0 0 0.537255 0 0 0 0 1 0 0 0 0.4 0"/>
<feBlend mode="normal" in2="BackgroundImageFix" result="effect1_dropShadow_4_8"/>
<feBlend mode="normal" in="SourceGraphic" in2="effect1_dropShadow_4_8" result="shape"/>
</filter>
</defs>
</svg>
