<svg width="60" height="60" viewBox="0 0 60 60" fill="none" xmlns="http://www.w3.org/2000/svg">
<path opacity="0.4" d="M13.3345 52.6764C-4.44483 42.598 -4.44481 17.402 13.3345 7.32364L19.9966 3.54711C37.7759 -6.53127 60 6.06671 60 26.2235V33.7765C60 53.9333 37.7759 66.5313 19.9966 56.4529L13.3345 52.6764Z" fill="#FF99D0"/>
<g filter="url(#filter0_d_4_20)">
<rect x="15" y="15" width="4.28571" height="30" rx="1.5" fill="#FF008A"/>
<rect x="45" y="15" width="4.28571" height="30" rx="1.5" transform="rotate(90 45 15)" fill="#FF008A"/>
<rect x="45" y="40.7144" width="4.28571" height="30" rx="1.5" transform="rotate(90 45 40.7144)" fill="#FF008A"/>
<rect x="40.7144" y="15" width="4.28571" height="30" rx="1.5" fill="#FF008A"/>
<rect x="23" y="23" width="14" height="14" rx="2" fill="#FF008A"/>
</g>
<defs>
<filter id="filter0_d_4_20" x="5" y="9" width="50" height="50" filterUnits="userSpaceOnUse" color-interpolation-filters="sRGB">
<feFlood flood-opacity="0" result="BackgroundImageFix"/>
<feColorMatrix in="SourceAlpha" type="matrix" values="0 0 0 0 0 0 0 0 0 0 0 0 0 0 0 0 0 0 127 0" result="hardAlpha"/>
<feOffset dy="4"/>
<feGaussianBlur stdDeviation="5"/>
<feComposite in2="hardAlpha" operator="out"/>
<feColorMatrix type="matrix" values="0 0 0 0 1 0 0 0 0 0 0 0 0 0 0.541176 0 0 0 0.4 0"/>
<feBlend mode="normal" in2="BackgroundImageFix" result="effect1_dropShadow_4_20"/>
<feBlend mode="normal" in="SourceGraphic" in2="effect1_dropShadow_4_20" result="shape"/>
</filter>
</defs>
</svg>
